/* XPM */
static char * ario_xpm[] = {
"32 32 437 2",
"  	c None",
". 	c #83A3C0",
"+ 	c #8EA9C4",
"@ 	c #94AEC7",
"# 	c #A8BCD0",
"$ 	c #B6C7D6",
"% 	c #93ACC6",
"& 	c #82A2C1",
"* 	c #8FA9C5",
"= 	c #95AFC9",
"- 	c #ADC0D3",
"; 	c #AEC1D4",
"> 	c #9CB3CB",
", 	c #93ACC7",
"' 	c #7393B7",
") 	c #9CB5CC",
"! 	c #A4BCD1",
"~ 	c #9BB4CC",
"{ 	c #8BA8C4",
"] 	c #89A7C4",
"^ 	c #7A9ABC",
"/ 	c #4672A3",
"( 	c #EEEEEE",
"_ 	c #EAEAEA",
": 	c #E9E9E9",
"< 	c #EDEDED",
"[ 	c #8EADC8",
"} 	c #85A3C2",
"| 	c #80A0C0",
"1 	c #7A9CBD",
"2 	c #4170A2",
"3 	c #CFD8DE",
"4 	c #87B6DD",
"5 	c #57A1E0",
"6 	c #56A3E3",
"7 	c #63AAE5",
"8 	c #67ACE5",
"9 	c #73B2E5",
"0 	c #79B0DE",
"a 	c #82A3C1",
"b 	c #E2E3E5",
"c 	c #3C6CA0",
"d 	c #EBEBEB",
"e 	c #C8D3DC",
"f 	c #509CDB",
"g 	c #399BED",
"h 	c #89C2F0",
"i 	c #C2DDF0",
"j 	c #CCE1F0",
"k 	c #CDE2F0",
"l 	c #CFE3F0",
"m 	c #D3E4F0",
"n 	c #BAD4E8",
"o 	c #669DCC",
"p 	c #7CB8E8",
"q 	c #A1C9E9",
"r 	c #EBEBEC",
"s 	c #37699E",
"t 	c #94B7D3",
"u 	c #158AE9",
"v 	c #76BBF0",
"w 	c #B5D8F0",
"x 	c #B7D8F0",
"y 	c #B9D9F0",
"z 	c #BADAF0",
"A 	c #BCDBF0",
"B 	c #BEDBF0",
"C 	c #B4D1E8",
"D 	c #81AACB",
"E 	c #C5DDEE",
"F 	c #B3D6F0",
"G 	c #7EBCEC",
"H 	c #C8DCEB",
"I 	c #31659C",
"J 	c #8AB2D1",
"K 	c #0587EE",
"L 	c #76BCF0",
"M 	c #A1CFF0",
"N 	c #A3D0F0",
"O 	c #A5D1F0",
"P 	c #A7D2F0",
"Q 	c #A9D3F0",
"R 	c #ABD4F0",
"S 	c #ADD5F0",
"T 	c #B1D6F0",
"U 	c #A4CBE8",
"V 	c #75A4CA",
"W 	c #B4D6EE",
"X 	c #B8D9F0",
"Y 	c #BAD9F0",
"Z 	c #88C3EF",
"` 	c #A8CEEB",
" .	c #2C629B",
"..	c #AFC3D3",
"+.	c #0788EB",
"@.	c #3BA3F0",
"#.	c #8FC8F0",
"$.	c #90C9F0",
"%.	c #92C9F0",
"&.	c #94CAF0",
"*.	c #96CBF0",
"=.	c #98CCF0",
"-.	c #9ACCF0",
";.	c #9CCDF0",
">.	c #9FCFF0",
",.	c #93C4E8",
"'.	c #689EC9",
").	c #A2CEEE",
"!.	c #A8D2F0",
"~.	c #84C2F0",
"{.	c #99C9EC",
"].	c #265F99",
"^.	c #E2E2E2",
"/.	c #2D93DD",
"(.	c #008AF0",
"_.	c #69B8F0",
":.	c #7FC1F0",
"<.	c #80C2F0",
"[.	c #82C2F0",
"}.	c #83C3F0",
"|.	c #85C4F0",
"1.	c #87C5F0",
"2.	c #88C5F0",
"3.	c #8AC6F0",
"4.	c #83BEE8",
"5.	c #5C98C8",
"6.	c #90C7EE",
"7.	c #93CAF0",
"8.	c #95CBF0",
"9.	c #97CBF0",
"0.	c #99CCF0",
"a.	c #63B5F0",
"b.	c #A8D0ED",
"c.	c #225C98",
"d.	c #9CBCD2",
"e.	c #018DF0",
"f.	c #068FF0",
"g.	c #6EBAF0",
"h.	c #70BBF0",
"i.	c #71BCF0",
"j.	c #73BCF0",
"k.	c #74BDF0",
"l.	c #75BDF0",
"m.	c #77BEF0",
"n.	c #78BFF0",
"o.	c #7ABFF0",
"p.	c #7EC1F0",
"q.	c #74B7E8",
"r.	c #5193C7",
"s.	c #7FC0EE",
"t.	c #82C3F0",
"u.	c #84C3F0",
"v.	c #89C6F0",
"w.	c #32A1EF",
"x.	c #D2E2EE",
"y.	c #1E5A97",
"z.	c #4DA0D9",
"A.	c #0891F0",
"B.	c #0E93F0",
"C.	c #63B6F0",
"D.	c #64B6F0",
"E.	c #65B7F0",
"F.	c #66B7F0",
"G.	c #68B8F0",
"H.	c #6AB9F0",
"I.	c #6BB9F0",
"J.	c #70BCF0",
"K.	c #66B2E8",
"L.	c #3F8CC6",
"M.	c #6FBAEE",
"N.	c #72BCF0",
"O.	c #73BDF0",
"P.	c #76BEF0",
"Q.	c #57B1F0",
"R.	c #51AEEF",
"S.	c #0F5295",
"T.	c #E0E0E0",
"U.	c #2697E5",
"V.	c #1094F0",
"W.	c #1195F0",
"X.	c #53AFF0",
"Y.	c #58B1F0",
"Z.	c #59B2F0",
"`.	c #5AB2F0",
" +	c #5BB2F0",
".+	c #5CB3F0",
"++	c #5DB3F0",
"@+	c #5EB4F0",
"#+	c #5FB4F0",
"$+	c #5BADE8",
"%+	c #3588C8",
"&+	c #62B4EE",
"*+	c #64B7F0",
"=+	c #67B8F0",
"-+	c #69B9F0",
";+	c #1295F0",
">+	c #BDDAEE",
",+	c #085197",
"'+	c #D0D5D9",
")+	c #1997EF",
"!+	c #1997F0",
"~+	c #3DA6F0",
"{+	c #50AEF0",
"]+	c #51AFF0",
"^+	c #52AFF0",
"/+	c #53B0F0",
"(+	c #54B0F0",
"_+	c #55B0F0",
":+	c #51A9E8",
"<+	c #308ACB",
"[+	c #57B0EE",
"}+	c #5EB3F0",
"|+	c #209AF0",
"1+	c #61B4EF",
"2+	c #0A579D",
"3+	c #BFCFDA",
"4+	c #229BF0",
"5+	c #2A9EF0",
"6+	c #49ABF0",
"7+	c #49ACF0",
"8+	c #4AACF0",
"9+	c #4BACF0",
"0+	c #4BADF0",
"a+	c #4CADF0",
"b+	c #4DADF0",
"c+	c #4AA6E8",
"d+	c #2E8DCF",
"e+	c #4FADEE",
"f+	c #50AFF0",
"g+	c #259CF0",
"h+	c #279DEF",
"i+	c #E2E7EB",
"j+	c #0C5EA3",
"k+	c #EFEFEF",
"l+	c #C3D1DB",
"m+	c #2B9FF0",
"n+	c #3AA5F0",
"o+	c #47AAF0",
"p+	c #47ABF0",
"q+	c #48ACF0",
"r+	c #2F90D2",
"s+	c #4DACEE",
"t+	c #48ABF0",
"u+	c #37A4F0",
"v+	c #BFDBEE",
"w+	c #1067AA",
"x+	c #D5DADE",
"y+	c #35A2EE",
"z+	c #34A3F0",
"A+	c #36A3F0",
"B+	c #43A9F0",
"C+	c #4EAEF0",
"D+	c #51AEF0",
"E+	c #4CA7E8",
"F+	c #3293D4",
"G+	c #50ADEE",
"H+	c #4FAEF0",
"I+	c #3EA7F0",
"J+	c #7DB8E0",
"K+	c #469CCF",
"L+	c #238FCD",
"M+	c #238DCB",
"N+	c #1674B5",
"O+	c #E5E5E5",
"P+	c #4CA8E9",
"Q+	c #3FA7F0",
"R+	c #40A8F0",
"S+	c #45AAF0",
"T+	c #58ACE8",
"U+	c #3494D3",
"V+	c #56B0EE",
"W+	c #56B1F0",
"X+	c #3B99D6",
"Y+	c #2B9FDB",
"Z+	c #2CA2DE",
"`+	c #238DCC",
" @	c #78B7E4",
".@	c #56B0F0",
"+@	c #83C3EF",
"@@	c #67ACDF",
"#@	c #5EA8DD",
"$@	c #6DAFE0",
"%@	c #3893D0",
"&@	c #60B3EE",
"*@	c #60B4F0",
"=@	c #469DD8",
"-@	c #2897D3",
";@	c #2998D4",
">@	c #2086C4",
",@	c #ECECEC",
"'@	c #B2CFE3",
")@	c #61B5F0",
"!@	c #66ABDB",
"~@	c #2A85C0",
"{@	c #2288C4",
"]@	c #2082BF",
"^@	c #3F95CE",
"/@	c #6DB9EE",
"(@	c #6DBAF0",
"_@	c #2C88C5",
":@	c #E6E8E9",
"<@	c #6EB8EC",
"[@	c #6EBBF0",
"}@	c #8BC7F0",
"|@	c #61A2D2",
"1@	c #1B73AF",
"2@	c #1C76B1",
"3@	c #4693C9",
"4@	c #7CBFEE",
"5@	c #7CC0F0",
"6@	c #78BEF0",
"7@	c #6EBAEF",
"8@	c #3588C3",
"9@	c #1A72AE",
"0@	c #1265A4",
"a@	c #B2D1E7",
"b@	c #8AC4ED",
"c@	c #19649F",
"d@	c #14629D",
"e@	c #609FD0",
"f@	c #8AC5EE",
"g@	c #86C4F0",
"h@	c #80C1F0",
"i@	c #7BBFEF",
"j@	c #71B8E9",
"k@	c #418CC4",
"l@	c #5287B3",
"m@	c #2F6D9E",
"n@	c #EBECEC",
"o@	c #90C6EC",
"p@	c #7BB7E3",
"q@	c #0D4E89",
"r@	c #0D4F8A",
"s@	c #306FA5",
"t@	c #95C8EC",
"u@	c #98CBEF",
"v@	c #8DC7F0",
"w@	c #88C6F0",
"x@	c #8AC4EC",
"y@	c #DEDEDE",
"z@	c #E4E4E4",
"A@	c #DEE7ED",
"B@	c #8FC8EF",
"C@	c #8DC8F0",
"D@	c #91C9F0",
"E@	c #95CAF0",
"F@	c #96C9EE",
"G@	c #356EA3",
"H@	c #073F7A",
"I@	c #07407A",
"J@	c #0C4580",
"K@	c #4B80B0",
"L@	c #9EC9EA",
"M@	c #A4CFEE",
"N@	c #A4D1F0",
"O@	c #A2D0F0",
"P@	c #A0CFF0",
"Q@	c #9DCEF0",
"R@	c #C3DDEF",
"S@	c #CDCDCD",
"T@	c #D5E4EE",
"U@	c #99CCEF",
"V@	c #9ACDF0",
"W@	c #9ECEF0",
"X@	c #A1CEEF",
"Y@	c #A2CDED",
"Z@	c #88B5D9",
"`@	c #83AFD4",
" #	c #A2CAE8",
".#	c #ACD2ED",
"+#	c #AED4EE",
"@#	c #B0D6F0",
"##	c #AFD5F0",
"$#	c #A8D3F0",
"%#	c #A9D2EF",
"&#	c #E0E2E3",
"*#	c #CACACA",
"=#	c #D8E5EE",
"-#	c #A7D1EF",
";#	c #AED5F0",
">#	c #B0D5EF",
",#	c #B3D6EF",
"'#	c #B5D7EF",
")#	c #B7D9F0",
"!#	c #B2D7F0",
"~#	c #AED5EF",
"{#	c #DFE7EC",
"]#	c #BBBBBB",
"^#	c #C2C2C2",
"/#	c #DFDFDF",
"(#	c #E3EAEE",
"_#	c #BAD9EF",
":#	c #B3D7F0",
"<#	c #B6D8F0",
"[#	c #BCDAF0",
"}#	c #C0DCF0",
"|#	c #C1DDF0",
"1#	c #BBDAEF",
"2#	c #DFE7ED",
"3#	c #C3C3C3",
"4#	c #D3D3D3",
"5#	c #EAEBEC",
"6#	c #D6E4EE",
"7#	c #C0DBEF",
"8#	c #C3DDF0",
"9#	c #C6DFF0",
"0#	c #C8E0F0",
"a#	c #C9E0F0",
"b#	c #CAE1F0",
"c#	c #CAE0F0",
"d#	c #CEE1EF",
"e#	c #E5E9EB",
"f#	c #BEBEBE",
"g#	c #C0C0C0",
"h#	c #DADADA",
"i#	c #DFE8EE",
"j#	c #D3E3EF",
"k#	c #CCE1EF",
"l#	c #CEE2F0",
"m#	c #D0E3F0",
"n#	c #D1E3F0",
"o#	c #D1E2EF",
"p#	c #D9E6EF",
"q#	c #E5EAEE",
"r#	c #DBDBDB",
"s#	c #AFAFAF",
"t#	c #B9B9B9",
"u#	c #CCCCCC",
"v#	c #E9EBED",
"w#	c #E9ECEE",
"x#	c #EAECEE",
"y#	c #D1D1D1",
"z#	c #B5B5B5",
"A#	c #ABABAB",
"B#	c #B3B3B3",
"C#	c #ACACAC",
"D#	c #9E9E9E",
"                                                                ",
"                                                  . + @ # $ %   ",
"                                        & * = - ; ; ; ; > , '   ",
"                                & ) ! ! ! ! ~ { ] ^         /   ",
"                    ( _ : < <   [ } | 1                     2   ",
"              _ 3 4 5 6 7 8 9 0 a b                         c   ",
"          d e f g h i j k l m n o p q r                     s   ",
"        _ t u v w x y z A B i C D E F G H                   I   ",
"      d J K L M N O P Q R S T U V W X Y Z `                  .  ",
"    d ..+.@.#.$.%.&.*.=.-.;.>.,.'.).O !.Q ~.{.              ].  ",
"    ^./.(._.:.<.[.}.|.1.2.3.#.4.5.6.7.8.9.0.a.b.            c.  ",
"  d d.e.f.g.h.i.j.k.l.m.n.o.p.q.r.s.t.u.|.1.v.w.x.          y.  ",
"  _ z.A.B.C.C.D.E.F.G._.H.I.J.K.L.M.N.O.l.P.n.Q.R.(         S.  ",
"  T.U.V.W.X.Y.Z.`. +.+++@+#+D.$+%+&+*+F.=+G.-+=+;+>+        ,+  ",
": '+)+!+!+~+{+]+]+^+X./+(+_+`.:+<+[+Z.`. +.+++}+|+1+:       2+  ",
"( 3+4+4+4+5+6+7+8+9+0+a+b+b+^+c+d+e+f+]+^+^+/+(+g+h+i+      j+  ",
"k+l+m+m+m+m+n+o+p+q+8+0+a+b+^+c+r+s+b+a+a+a+a+t+m+u+v+      w+  ",
": x+y+z+z+z+A+B+7+0+b+C+{+D+_+E+F+G+{+H+b+0+8+I+9+*+J+K+L+M+N+  ",
"  O+P+~+Q+R+B+S+a+]+/+_+#+=+H.T+U+V+W+(+X.f+0+H+=+X+Y+Z+Z+Z+`+  ",
"  <  @7+a+C+]+X..@Z.E.p.+@@@#@$@%@&@*@@+.+Z.(+=+=@-@;@;@;@;@>@  ",
"  ,@'@_+Y. +@+)@C.h.3.!@~@{@{@]@^@/@(@I._.F.C._._@{@{@{@{@{@    ",
"  _ :@<@D.=+I.[@N.}@|@1@2@2@2@2@3@4@5@o.6@l.i.7@8@2@2@2@9@0@    ",
"    ,@a@i.k.m.o.t.b@c@d@d@d@d@d@e@f@3.v.g@}.h@i@j@k@l@m@        ",
"    T.n@o@:.t.g@}@p@q@r@r@r@r@s@t@u@9.*.7.$.v@w@+@x@y@          ",
"      z@A@B@C@D@E@F@G@H@I@J@K@L@M@O N@O@P@Q@0.8.D@R@S@          ",
"        O+T@U@V@W@X@Y@Z@`@ #.#+#@#@###S R $#N@P@%#&#            ",
"        *#O+=#-#P R ;#>#,#'#X y z z y )#w !###~#{#]#            ",
"          ^#/#(#_#:#<#y [#B }#|#i i i }#B [#1#2#3#              ",
"              4#5#6#7#}#8#9#0#a#b#b#c#0#9#d#e#f#                ",
"                g#h#n@i#j#k#l#m#n#n#o#p#q#r#s#                  ",
"                    t#u#/#_ v#w#x#5#O+y#z#                      ",
"                          A#s#z#B#C#D#                          "};
