/* XPM */
static char * ario_xpm[] = {
"32 32 127 2",
"  	c None",
". 	c #000000",
"+ 	c #040303",
"@ 	c #090808",
"# 	c #1E1D1B",
"$ 	c #706D67",
"% 	c #1C1B1A",
"& 	c #242321",
"* 	c #98948C",
"= 	c #B8B4AA",
"- 	c #1D1D1B",
"; 	c #3E3C39",
"> 	c #9E9A91",
", 	c #B9B4AA",
"' 	c #B8B3A9",
") 	c #0D0D0C",
"! 	c #585550",
"~ 	c #B6B2A8",
"{ 	c #1D1C1A",
"] 	c #020201",
"^ 	c #6F6C66",
"/ 	c #B0ACA2",
"( 	c #BAB5AB",
"_ 	c #BCB8AF",
": 	c #B6B1A8",
"< 	c #1C1B19",
"[ 	c #010101",
"} 	c #2D2B29",
"| 	c #88847D",
"1 	c #BAB5AC",
"2 	c #AEA99F",
"3 	c #ABA79C",
"4 	c #161614",
"5 	c #0C0C0C",
"6 	c #A29D94",
"7 	c #B5B0A7",
"8 	c #A7A399",
"9 	c #A6A197",
"0 	c #0E0D0C",
"a 	c #3B3933",
"b 	c #A8A39A",
"c 	c #75716B",
"d 	c #060605",
"e 	c #7A7770",
"f 	c #B4AFA6",
"g 	c #ABA69C",
"h 	c #A7A297",
"i 	c #A19C91",
"j 	c #9F9B90",
"k 	c #9F9A91",
"l 	c #0D0C0C",
"m 	c #393732",
"n 	c #A19C93",
"o 	c #0C0C0B",
"p 	c #77746D",
"q 	c #A9A49A",
"r 	c #A39E94",
"s 	c #A09B91",
"t 	c #9C978D",
"u 	c #9B968C",
"v 	c #9A958B",
"w 	c #0C0B0B",
"x 	c #373530",
"y 	c #878379",
"z 	c #89847B",
"A 	c #0A0909",
"B 	c #66635C",
"C 	c #979288",
"D 	c #949086",
"E 	c #938E85",
"F 	c #938F85",
"G 	c #0B0B0A",
"H 	c #34322D",
"I 	c #79756B",
"J 	c #7B766D",
"K 	c #080706",
"L 	c #5F5D56",
"M 	c #908C82",
"N 	c #8F8B81",
"O 	c #8E8A80",
"P 	c #8E897F",
"Q 	c #8D897F",
"R 	c #32302B",
"S 	c #68645A",
"T 	c #69655B",
"U 	c #595650",
"V 	c #868177",
"W 	c #868178",
"X 	c #868277",
"Y 	c #858177",
"Z 	c #322F2B",
"` 	c #5A564C",
" .	c #59554B",
"..	c #504D47",
"+.	c #777369",
"@.	c #787369",
"#.	c #040403",
"$.	c #545147",
"%.	c #535046",
"&.	c #030202",
"*.	c #434039",
"=.	c #646056",
"-.	c #030302",
";.	c #1E1C19",
">.	c #21201C",
",.	c #1A1916",
"'.	c #181614",
").	c #555148",
"!.	c #58544A",
"~.	c #58544B",
"{.	c #58554A",
"].	c #59544A",
"^.	c #11100E",
"/.	c #423E37",
"(.	c #565248",
"_.	c #0C0C0A",
":.	c #4B473F",
"<.	c #100F0D",
"[.	c #3C3932",
"}.	c #545046",
"|.	c #020202",
"1.	c #080807",
"2.	c #393630",
"3.	c #534F45",
"4.	c #262420",
"5.	c #292722",
"6.	c #4D4A41",
"                                                                ",
"                                                                ",
"                                                                ",
"                                              . . .             ",
"                              + @               . . .           ",
"                            # $ %                 . .           ",
"                        . & * = -         . .       . .         ",
"                      . ; > , ' #         . . .     . .         ",
"                    ) ! , ' = ~ {             .       .         ",
"                . ] ^ / , ( _ : <     .       . .     . .       ",
"              [ } | , ( 1 : 2 3 4     . .       .     . .       ",
"      . . . [ 5 6 ' 1 7 2 8 9 9 0       .       .       .       ",
"      a b c d e ' f g h i j k j l       . .     . .     .       ",
"      m 9 n o p q r s t u v v v w .     . .     . .     .       ",
"      x y z A B C D E E E F F E G .       .     . .     .       ",
"      H I J K L M N O P P P P Q G .       .     . .     .       ",
"      R S T d U V V V W V X W Y @ .       .     . .     .       ",
"      Z `  .d ..+.+.@.+.@.+.+.+.#..       .     . .     .       ",
"      Z $.%.&.*.=.=.=.=.=.=.=.=.-..     . .     . .     .       ",
"      ;.>.,.. '.).!.~.!.!.!.{.].-.      . .     . .     .       ",
"      ] [     . ^./.(.(.(.(.(.(.&.    . .       .     . .       ",
"                . _.:.(.(.(.(.(.&.  . . .     . .     . .       ",
"                  . <.[.}.(.(.(.|.            . .     . .       ",
"                    . 1.2.3.(.(..           . .       .         ",
"                        &.4.%.(..         . .       . .         ",
"                          -.5.6..                   . .         ",
"                            . . .                 . .           ",
"                                              . . .             ",
"                                              . .               ",
"                                                                ",
"                                                                ",
"                                                                "};
